<svg width="546" height="421" viewBox="0 0 546 421" fill="none" xmlns="http://www.w3.org/2000/svg">
<path d="M162.409 79.5L174 9.68182H196.534C201.489 9.68182 205.477 10.5682 208.5 12.3409C211.545 14.1136 213.648 16.5795 214.807 19.7386C215.989 22.875 216.25 26.4886 215.591 30.5795C214.909 34.625 213.455 38.2045 211.227 41.3182C209.023 44.4318 206.114 46.875 202.5 48.6477C198.886 50.3977 194.625 51.2727 189.716 51.2727H170.557L171.545 45.4432H190.534C194.193 45.4432 197.33 44.8409 199.943 43.6364C202.557 42.4318 204.648 40.7159 206.216 38.4886C207.784 36.2614 208.818 33.625 209.318 30.5795C209.818 27.5114 209.648 24.8409 208.807 22.5682C207.989 20.2955 206.466 18.5341 204.239 17.2841C202.034 16.0341 199.091 15.4091 195.409 15.4091H179.42L168.784 79.5H162.409ZM198.409 48L210.375 79.5H203.045L191.284 48H198.409ZM240.324 88.2273L254.778 0.95454H259.244L244.79 88.2273H240.324ZM269.506 27.5114C269.665 23.4205 268.449 20.2159 265.858 17.8977C263.29 15.5795 259.688 14.4205 255.051 14.4205C251.824 14.4205 248.869 14.9886 246.188 16.125C243.528 17.2386 241.335 18.7727 239.608 20.7273C237.903 22.6818 236.847 24.9091 236.438 27.4091C236.142 29.25 236.278 30.8636 236.847 32.25C237.415 33.6136 238.29 34.7955 239.472 35.7955C240.653 36.7955 242.006 37.6477 243.528 38.3523C245.074 39.0568 246.642 39.6477 248.233 40.125L255.29 42.2386C257.381 42.8523 259.46 43.6364 261.528 44.5909C263.597 45.5455 265.438 46.7386 267.051 48.1705C268.665 49.6023 269.858 51.3636 270.631 53.4545C271.426 55.5455 271.585 58.0455 271.108 60.9545C270.472 64.7273 268.949 68.1023 266.54 71.0795C264.153 74.0341 261.017 76.375 257.131 78.1023C253.244 79.8295 248.756 80.6932 243.665 80.6932C238.915 80.6932 234.915 79.9091 231.665 78.3409C228.415 76.75 226.017 74.5568 224.472 71.7614C222.926 68.9659 222.335 65.7273 222.699 62.0455H229.244C228.994 64.7955 229.506 67.125 230.778 69.0341C232.074 70.9432 233.915 72.3977 236.301 73.3977C238.71 74.375 241.483 74.8636 244.619 74.8636C248.097 74.8636 251.29 74.2841 254.199 73.125C257.108 71.9432 259.506 70.3068 261.392 68.2159C263.301 66.1023 264.483 63.6477 264.938 60.8523C265.347 58.4886 265.063 56.5 264.085 54.8864C263.131 53.2727 261.642 51.9205 259.619 50.8295C257.619 49.7159 255.233 48.7386 252.46 47.8977L244.483 45.4432C239.278 43.8523 235.403 41.6136 232.858 38.7273C230.335 35.8409 229.438 32.1591 230.165 27.6818C230.801 23.9091 232.358 20.6023 234.835 17.7614C237.335 14.8977 240.438 12.6705 244.142 11.0795C247.847 9.48863 251.847 8.69318 256.142 8.69318C260.483 8.69318 264.176 9.5 267.222 11.1136C270.29 12.7273 272.563 14.9545 274.04 17.7955C275.54 20.6136 276.097 23.8523 275.71 27.5114H269.506ZM293.185 79.5V67.3636L318.651 45.0682C320.56 43.3409 322.185 41.7614 323.526 40.3295C324.867 38.875 325.89 37.4205 326.594 35.9659C327.299 34.4886 327.651 32.8864 327.651 31.1591C327.651 29.2273 327.231 27.5795 326.39 26.2159C325.549 24.8295 324.39 23.7614 322.913 23.0114C321.435 22.2614 319.742 21.8864 317.833 21.8864C315.901 21.8864 314.208 22.2841 312.753 23.0795C311.299 23.8523 310.163 24.9773 309.344 26.4545C308.549 27.9318 308.151 29.7273 308.151 31.8409H292.163C292.163 27.0909 293.231 22.9886 295.367 19.5341C297.503 16.0795 300.503 13.4205 304.367 11.5568C308.253 9.67045 312.765 8.72727 317.901 8.72727C323.197 8.72727 327.799 9.61363 331.708 11.3864C335.617 13.1591 338.64 15.6364 340.776 18.8182C342.935 21.9773 344.015 25.6477 344.015 29.8295C344.015 32.4886 343.481 35.125 342.413 37.7386C341.344 40.3523 339.424 43.2386 336.651 46.3977C333.901 49.5568 329.992 53.3409 324.924 57.75L316.572 65.4545V65.8977H344.867V79.5H293.185ZM380.688 8.72727C384.506 8.72727 388.154 9.35227 391.631 10.6023C395.109 11.8295 398.211 13.7955 400.938 16.5C403.665 19.1818 405.813 22.7159 407.381 27.1023C408.949 31.4886 409.734 36.8409 409.734 43.1591C409.756 48.9773 409.074 54.1932 407.688 58.8068C406.302 63.3977 404.313 67.3068 401.722 70.5341C399.154 73.7614 396.063 76.2273 392.449 77.9318C388.836 79.6136 384.802 80.4545 380.347 80.4545C375.438 80.4545 371.109 79.5114 367.359 77.625C363.631 75.7159 360.643 73.1477 358.393 69.9205C356.165 66.6932 354.836 63.0795 354.404 59.0795H371.006C371.529 61.3977 372.631 63.1477 374.313 64.3295C375.995 65.4886 378.006 66.0682 380.347 66.0682C384.62 66.0682 387.813 64.2159 389.927 60.5114C392.04 56.8068 393.097 51.7727 393.097 45.4091H392.688C391.711 47.5 390.324 49.2955 388.529 50.7955C386.756 52.2955 384.699 53.4432 382.359 54.2386C380.018 55.0341 377.552 55.4318 374.961 55.4318C370.779 55.4318 367.086 54.4773 363.881 52.5682C360.699 50.6591 358.199 48.0341 356.381 44.6932C354.586 41.3523 353.677 37.5341 353.654 33.2386C353.631 28.4205 354.756 24.1705 357.029 20.4886C359.302 16.7841 362.472 13.8977 366.54 11.8295C370.609 9.73863 375.324 8.70454 380.688 8.72727ZM380.79 21.6818C378.699 21.6818 376.836 22.1705 375.199 23.1477C373.586 24.125 372.313 25.4432 371.381 27.1023C370.449 28.7614 369.995 30.625 370.018 32.6932C370.04 34.7614 370.506 36.625 371.415 38.2841C372.347 39.9432 373.609 41.2614 375.199 42.2386C376.813 43.2159 378.654 43.7045 380.722 43.7045C382.268 43.7045 383.699 43.4205 385.018 42.8523C386.336 42.2841 387.484 41.5 388.461 40.5C389.438 39.4773 390.199 38.2955 390.745 36.9545C391.313 35.6136 391.586 34.1818 391.563 32.6591C391.54 30.6364 391.063 28.7955 390.131 27.1364C389.199 25.4773 387.915 24.1591 386.279 23.1818C384.665 22.1818 382.836 21.6818 380.79 21.6818ZM426.798 41.7727L426.573 44.0227C426.395 45.8227 426.055 47.6159 425.55 49.4023C425.059 51.2023 424.541 52.8318 423.995 54.2909C423.464 55.75 423.034 56.8955 422.707 57.7273H417.061C417.266 56.9227 417.545 55.7977 417.9 54.3523C418.255 52.9205 418.589 51.3114 418.902 49.525C419.216 47.7386 419.414 45.9182 419.495 44.0636L419.598 41.7727H426.798ZM450.78 5.03636C452.935 5.03636 455.008 5.39772 456.998 6.12045C459.003 6.84318 460.789 7.99545 462.358 9.57727C463.939 11.1591 465.187 13.2591 466.101 15.8773C467.028 18.4818 467.498 21.6795 467.512 25.4705C467.512 29.0295 467.11 32.2068 466.305 35.0023C465.514 37.7841 464.376 40.15 462.889 42.1C461.403 44.05 459.61 45.5364 457.51 46.5591C455.41 47.5682 453.064 48.0727 450.473 48.0727C447.678 48.0727 445.21 47.5341 443.069 46.4568C440.928 45.3659 439.203 43.8864 437.894 42.0182C436.598 40.1364 435.814 38.0227 435.542 35.6773H444.276C444.617 37.2045 445.333 38.3909 446.423 39.2364C447.514 40.0682 448.864 40.4841 450.473 40.4841C453.201 40.4841 455.273 39.2977 456.692 36.925C458.11 34.5386 458.826 31.2727 458.839 27.1273H458.553C457.926 28.3545 457.08 29.4114 456.017 30.2977C454.953 31.1705 453.733 31.8455 452.355 32.3227C450.992 32.8 449.539 33.0386 447.998 33.0386C445.53 33.0386 443.328 32.4591 441.392 31.3C439.455 30.1409 437.928 28.5455 436.81 26.5136C435.692 24.4818 435.133 22.1636 435.133 19.5591C435.119 16.75 435.767 14.2477 437.076 12.0523C438.385 9.85682 440.212 8.13863 442.558 6.89773C444.917 5.64318 447.658 5.02272 450.78 5.03636ZM450.842 11.9909C449.464 11.9909 448.237 12.3182 447.16 12.9727C446.096 13.6273 445.251 14.5068 444.623 15.6114C444.01 16.7159 443.71 17.95 443.723 19.3136C443.723 20.6909 444.023 21.9318 444.623 23.0364C445.237 24.1273 446.069 25 447.119 25.6545C448.183 26.2955 449.396 26.6159 450.76 26.6159C451.783 26.6159 452.73 26.425 453.603 26.0432C454.476 25.6614 455.233 25.1364 455.873 24.4682C456.528 23.7864 457.039 23.0023 457.408 22.1159C457.776 21.2295 457.96 20.2886 457.96 19.2932C457.946 17.9705 457.633 16.7568 457.019 15.6523C456.405 14.5477 455.56 13.6614 454.483 12.9932C453.405 12.325 452.192 11.9909 450.842 11.9909ZM491.801 48.4205C488.283 48.4068 485.256 47.5409 482.72 45.8227C480.197 44.1045 478.254 41.6159 476.89 38.3568C475.54 35.0977 474.872 31.1773 474.886 26.5955C474.886 22.0273 475.561 18.1341 476.911 14.9159C478.274 11.6977 480.217 9.25 482.74 7.57273C485.276 5.88182 488.297 5.03636 491.801 5.03636C495.306 5.03636 498.32 5.88182 500.842 7.57273C503.379 9.26363 505.329 11.7182 506.692 14.9364C508.056 18.1409 508.731 22.0273 508.717 26.5955C508.717 31.1909 508.036 35.1182 506.672 38.3773C505.322 41.6364 503.386 44.125 500.863 45.8432C498.34 47.5614 495.32 48.4205 491.801 48.4205ZM491.801 41.0773C494.201 41.0773 496.117 39.8705 497.549 37.4568C498.981 35.0432 499.69 31.4227 499.676 26.5955C499.676 23.4182 499.349 20.7727 498.695 18.6591C498.054 16.5455 497.14 14.9568 495.954 13.8932C494.781 12.8295 493.397 12.2977 491.801 12.2977C489.415 12.2977 487.506 13.4909 486.074 15.8773C484.642 18.2636 483.92 21.8364 483.906 26.5955C483.906 29.8136 484.226 32.5 484.867 34.6545C485.522 36.7955 486.442 38.4045 487.629 39.4818C488.815 40.5455 490.206 41.0773 491.801 41.0773Z" fill="#EE3131"/>
<path d="M49.0966 50.4091V79.5H42.0795V56.9716H41.9091L35.4034 60.9489V54.8693L42.5767 50.4091H49.0966ZM55.5277 79.5V74.4432L66.1385 65.1534C66.9339 64.4337 67.611 63.7756 68.1697 63.179C68.7285 62.5729 69.1546 61.9669 69.4482 61.3608C69.7417 60.7453 69.8885 60.0777 69.8885 59.358C69.8885 58.553 69.7133 57.8665 69.3629 57.2983C69.0125 56.7206 68.5296 56.2756 67.9141 55.9631C67.2985 55.6506 66.593 55.4943 65.7976 55.4943C64.9927 55.4943 64.2872 55.66 63.6811 55.9915C63.075 56.3134 62.6016 56.7822 62.2607 57.3977C61.9292 58.0133 61.7635 58.7614 61.7635 59.642H55.1016C55.1016 57.6629 55.5466 55.9536 56.4368 54.5142C57.3269 53.0748 58.5769 51.9669 60.1868 51.1903C61.8061 50.4044 63.6858 50.0114 65.826 50.0114C68.0324 50.0114 69.95 50.3807 71.5788 51.1193C73.2076 51.858 74.4671 52.8902 75.3572 54.2159C76.2569 55.5322 76.7067 57.0616 76.7067 58.804C76.7067 59.9119 76.4841 61.0104 76.0391 62.0994C75.594 63.1884 74.7938 64.3911 73.6385 65.7074C72.4927 67.0237 70.8639 68.6004 68.7521 70.4375L65.272 73.6477V73.8324H77.0618V79.5H55.5277ZM87.0014 57.6818L90.5952 64.8693L94.3168 57.6818H101.32L95.2259 68.5909L101.547 79.5H94.6009L90.5952 72.2557L86.6889 79.5H79.6435L85.9787 68.5909L79.956 57.6818H87.0014ZM119.928 79.8636C118.474 79.8636 117.19 79.4962 116.076 78.7614C114.962 78.0189 114.091 76.9735 113.462 75.625C112.834 74.2689 112.519 72.6667 112.519 70.8182C112.519 68.9848 112.834 67.3939 113.462 66.0455C114.091 64.697 114.966 63.6553 116.087 62.9205C117.209 62.1856 118.504 61.8182 119.974 61.8182C121.11 61.8182 122.008 62.0076 122.667 62.3864C123.334 62.7576 123.841 63.1818 124.19 63.6591C124.546 64.1288 124.822 64.5152 125.019 64.8182H125.246V56.2273H127.928V79.5H125.337V76.8182H125.019C124.822 77.1364 124.542 77.5379 124.178 78.0227C123.815 78.5 123.296 78.928 122.621 79.3068C121.947 79.678 121.049 79.8636 119.928 79.8636ZM120.292 77.4545C121.368 77.4545 122.277 77.1742 123.019 76.6136C123.762 76.0455 124.326 75.2614 124.712 74.2614C125.099 73.2538 125.292 72.0909 125.292 70.7727C125.292 69.4697 125.103 68.3295 124.724 67.3523C124.345 66.3674 123.784 65.6023 123.042 65.0568C122.299 64.5038 121.383 64.2273 120.292 64.2273C119.156 64.2273 118.209 64.5189 117.451 65.1023C116.701 65.678 116.137 66.4621 115.758 67.4545C115.387 68.4394 115.201 69.5455 115.201 70.7727C115.201 72.0152 115.39 73.1439 115.769 74.1591C116.156 75.1667 116.724 75.9697 117.474 76.5682C118.231 77.1591 119.171 77.4545 120.292 77.4545ZM140.531 79.8636C138.849 79.8636 137.398 79.4924 136.178 78.75C134.966 78 134.031 76.9545 133.371 75.6136C132.72 74.2652 132.394 72.697 132.394 70.9091C132.394 69.1212 132.72 67.5455 133.371 66.1818C134.031 64.8106 134.947 63.7424 136.121 62.9773C137.303 62.2045 138.682 61.8182 140.258 61.8182C141.167 61.8182 142.065 61.9697 142.951 62.2727C143.837 62.5758 144.644 63.0682 145.371 63.75C146.099 64.4242 146.678 65.3182 147.11 66.4318C147.542 67.5455 147.758 68.9167 147.758 70.5455V71.6818H134.303V69.3636H145.031C145.031 68.3788 144.834 67.5 144.44 66.7273C144.053 65.9545 143.5 65.3447 142.781 64.8977C142.068 64.4508 141.228 64.2273 140.258 64.2273C139.19 64.2273 138.265 64.4924 137.485 65.0227C136.712 65.5455 136.118 66.2273 135.701 67.0682C135.284 67.9091 135.076 68.8106 135.076 69.7727V71.3182C135.076 72.6364 135.303 73.7538 135.758 74.6705C136.22 75.5795 136.86 76.2727 137.678 76.75C138.496 77.2197 139.447 77.4545 140.531 77.4545C141.235 77.4545 141.871 77.3561 142.44 77.1591C143.015 76.9545 143.512 76.6515 143.928 76.25C144.345 75.8409 144.667 75.3333 144.894 74.7273L147.485 75.4545C147.212 76.3333 146.754 77.1061 146.11 77.7727C145.466 78.4318 144.671 78.947 143.724 79.3182C142.777 79.6818 141.712 79.8636 140.531 79.8636Z" fill="#EE3131"/>
<line x1="0.5" y1="187.5" x2="198.5" y2="187.5" stroke="#EE3131" stroke-width="2"/>
<line x1="347.5" y1="187.5" x2="545.5" y2="187.5" stroke="#EE3131" stroke-width="2"/>
<path d="M272.159 187.955C272.159 191.155 271.544 193.868 270.312 196.094C269.081 198.319 267.415 200.009 265.312 201.165C263.22 202.32 260.871 202.898 258.267 202.898C255.653 202.898 253.3 202.315 251.207 201.151C249.115 199.986 247.453 198.295 246.222 196.08C245 193.854 244.389 191.146 244.389 187.955C244.389 184.754 245 182.041 246.222 179.815C247.453 177.59 249.115 175.9 251.207 174.744C253.3 173.589 255.653 173.011 258.267 173.011C260.871 173.011 263.22 173.589 265.312 174.744C267.415 175.9 269.081 177.59 270.312 179.815C271.544 182.041 272.159 184.754 272.159 187.955ZM264.972 187.955C264.972 186.061 264.702 184.46 264.162 183.153C263.632 181.847 262.865 180.857 261.861 180.185C260.866 179.512 259.669 179.176 258.267 179.176C256.875 179.176 255.677 179.512 254.673 180.185C253.67 180.857 252.898 181.847 252.358 183.153C251.828 184.46 251.562 186.061 251.562 187.955C251.562 189.848 251.828 191.449 252.358 192.756C252.898 194.062 253.67 195.052 254.673 195.724C255.677 196.397 256.875 196.733 258.267 196.733C259.669 196.733 260.866 196.397 261.861 195.724C262.865 195.052 263.632 194.062 264.162 192.756C264.702 191.449 264.972 189.848 264.972 187.955ZM293.864 173.409H300.881V192.173C300.881 194.342 300.365 196.231 299.332 197.841C298.3 199.441 296.861 200.682 295.014 201.562C293.168 202.434 291.023 202.869 288.58 202.869C286.108 202.869 283.949 202.434 282.102 201.562C280.256 200.682 278.821 199.441 277.798 197.841C276.776 196.231 276.264 194.342 276.264 192.173V173.409H283.295V191.562C283.295 192.566 283.513 193.461 283.949 194.247C284.394 195.033 285.014 195.649 285.81 196.094C286.605 196.539 287.528 196.761 288.58 196.761C289.631 196.761 290.549 196.539 291.335 196.094C292.131 195.649 292.751 195.033 293.196 194.247C293.641 193.461 293.864 192.566 293.864 191.562V173.409Z" fill="#EE3131"/>
<path d="M12.6247 366.5L24.2156 296.682H46.7497C51.7043 296.682 55.6929 297.568 58.7156 299.341C61.7611 301.114 63.8634 303.58 65.0225 306.739C66.2043 309.875 66.4656 313.489 65.8065 317.58C65.1247 321.625 63.6702 325.205 61.4429 328.318C59.2384 331.432 56.3293 333.875 52.7156 335.648C49.102 337.398 44.8406 338.273 39.9315 338.273H20.7725L21.7611 332.443H40.7497C44.4088 332.443 47.5452 331.841 50.1588 330.636C52.7725 329.432 54.8634 327.716 56.4315 325.489C57.9997 323.261 59.0338 320.625 59.5338 317.58C60.0338 314.511 59.8634 311.841 59.0225 309.568C58.2043 307.295 56.6815 305.534 54.4543 304.284C52.2497 303.034 49.3065 302.409 45.6247 302.409H29.6361L18.9997 366.5H12.6247ZM48.6247 335L60.5906 366.5H53.2611L41.4997 335H48.6247ZM90.5395 375.227L104.994 287.955H109.46L95.0054 375.227H90.5395ZM119.721 314.511C119.88 310.42 118.665 307.216 116.074 304.898C113.505 302.58 109.903 301.42 105.267 301.42C102.04 301.42 99.085 301.989 96.4031 303.125C93.744 304.239 91.5509 305.773 89.8236 307.727C88.119 309.682 87.0622 311.909 86.6531 314.409C86.3577 316.25 86.494 317.864 87.0622 319.25C87.6304 320.614 88.5054 321.795 89.6872 322.795C90.869 323.795 92.2213 324.648 93.744 325.352C95.2895 326.057 96.8577 326.648 98.4486 327.125L105.505 329.239C107.596 329.852 109.676 330.636 111.744 331.591C113.812 332.545 115.653 333.739 117.267 335.17C118.88 336.602 120.074 338.364 120.846 340.455C121.642 342.545 121.801 345.045 121.324 347.955C120.687 351.727 119.165 355.102 116.755 358.08C114.369 361.034 111.233 363.375 107.346 365.102C103.46 366.83 98.9713 367.693 93.8804 367.693C89.1304 367.693 85.1304 366.909 81.8804 365.341C78.6304 363.75 76.2327 361.557 74.6872 358.761C73.1418 355.966 72.5509 352.727 72.9145 349.045H79.46C79.21 351.795 79.7213 354.125 80.994 356.034C82.2895 357.943 84.1304 359.398 86.5168 360.398C88.9259 361.375 91.6986 361.864 94.835 361.864C98.3122 361.864 101.505 361.284 104.415 360.125C107.324 358.943 109.721 357.307 111.608 355.216C113.517 353.102 114.699 350.648 115.153 347.852C115.562 345.489 115.278 343.5 114.301 341.886C113.346 340.273 111.858 338.92 109.835 337.83C107.835 336.716 105.449 335.739 102.676 334.898L94.6986 332.443C89.494 330.852 85.619 328.614 83.0736 325.727C80.5509 322.841 79.6531 319.159 80.3804 314.682C81.0168 310.909 82.5736 307.602 85.0509 304.761C87.5509 301.898 90.6531 299.67 94.3577 298.08C98.0622 296.489 102.062 295.693 106.358 295.693C110.699 295.693 114.392 296.5 117.437 298.114C120.505 299.727 122.778 301.955 124.255 304.795C125.755 307.614 126.312 310.852 125.926 314.511H119.721ZM143.401 366.5V354.364L168.867 332.068C170.776 330.341 172.401 328.761 173.742 327.33C175.083 325.875 176.105 324.42 176.81 322.966C177.515 321.489 177.867 319.886 177.867 318.159C177.867 316.227 177.446 314.58 176.605 313.216C175.765 311.83 174.605 310.761 173.128 310.011C171.651 309.261 169.958 308.886 168.049 308.886C166.117 308.886 164.424 309.284 162.969 310.08C161.515 310.852 160.378 311.977 159.56 313.455C158.765 314.932 158.367 316.727 158.367 318.841H142.378C142.378 314.091 143.446 309.989 145.583 306.534C147.719 303.08 150.719 300.42 154.583 298.557C158.469 296.67 162.98 295.727 168.117 295.727C173.412 295.727 178.015 296.614 181.924 298.386C185.833 300.159 188.855 302.636 190.992 305.818C193.151 308.977 194.23 312.648 194.23 316.83C194.23 319.489 193.696 322.125 192.628 324.739C191.56 327.352 189.64 330.239 186.867 333.398C184.117 336.557 180.208 340.341 175.14 344.75L166.787 352.455V352.898H195.083V366.5H143.401ZM230.904 295.727C234.722 295.727 238.37 296.352 241.847 297.602C245.324 298.83 248.426 300.795 251.154 303.5C253.881 306.182 256.029 309.716 257.597 314.102C259.165 318.489 259.949 323.841 259.949 330.159C259.972 335.977 259.29 341.193 257.904 345.807C256.517 350.398 254.529 354.307 251.938 357.534C249.37 360.761 246.279 363.227 242.665 364.932C239.051 366.614 235.017 367.455 230.563 367.455C225.654 367.455 221.324 366.511 217.574 364.625C213.847 362.716 210.858 360.148 208.608 356.92C206.381 353.693 205.051 350.08 204.62 346.08H221.222C221.745 348.398 222.847 350.148 224.529 351.33C226.211 352.489 228.222 353.068 230.563 353.068C234.836 353.068 238.029 351.216 240.142 347.511C242.256 343.807 243.313 338.773 243.313 332.409H242.904C241.926 334.5 240.54 336.295 238.745 337.795C236.972 339.295 234.915 340.443 232.574 341.239C230.233 342.034 227.767 342.432 225.176 342.432C220.995 342.432 217.301 341.477 214.097 339.568C210.915 337.659 208.415 335.034 206.597 331.693C204.801 328.352 203.892 324.534 203.87 320.239C203.847 315.42 204.972 311.17 207.245 307.489C209.517 303.784 212.688 300.898 216.756 298.83C220.824 296.739 225.54 295.705 230.904 295.727ZM231.006 308.682C228.915 308.682 227.051 309.17 225.415 310.148C223.801 311.125 222.529 312.443 221.597 314.102C220.665 315.761 220.211 317.625 220.233 319.693C220.256 321.761 220.722 323.625 221.631 325.284C222.563 326.943 223.824 328.261 225.415 329.239C227.029 330.216 228.87 330.705 230.938 330.705C232.483 330.705 233.915 330.42 235.233 329.852C236.551 329.284 237.699 328.5 238.676 327.5C239.654 326.477 240.415 325.295 240.961 323.955C241.529 322.614 241.801 321.182 241.779 319.659C241.756 317.636 241.279 315.795 240.347 314.136C239.415 312.477 238.131 311.159 236.495 310.182C234.881 309.182 233.051 308.682 231.006 308.682ZM270.304 366.5L298.463 310.727V310.284H265.532V296.682H315.918V310.386L287.657 366.5H270.304ZM355.841 367.318C353.629 367.318 351.622 366.902 349.818 366.068C348.015 365.22 346.584 364 345.523 362.409C344.462 360.803 343.932 358.864 343.932 356.591C343.932 354.591 344.326 352.97 345.114 351.727C345.902 350.47 346.955 349.485 348.273 348.773C349.591 348.061 351.046 347.53 352.637 347.182C354.243 346.818 355.856 346.53 357.478 346.318C359.599 346.045 361.318 345.841 362.637 345.705C363.97 345.553 364.94 345.303 365.546 344.955C366.167 344.606 366.478 344 366.478 343.136V342.955C366.478 340.712 365.864 338.97 364.637 337.727C363.425 336.485 361.584 335.864 359.114 335.864C356.553 335.864 354.546 336.424 353.091 337.545C351.637 338.667 350.614 339.864 350.023 341.136L344.932 339.318C345.841 337.197 347.053 335.545 348.568 334.364C350.099 333.167 351.765 332.333 353.568 331.864C355.387 331.379 357.175 331.136 358.932 331.136C360.053 331.136 361.341 331.273 362.796 331.545C364.265 331.803 365.682 332.341 367.046 333.159C368.425 333.977 369.568 335.212 370.478 336.864C371.387 338.515 371.841 340.727 371.841 343.5V366.5H366.478V361.773H366.205C365.841 362.53 365.235 363.341 364.387 364.205C363.538 365.068 362.409 365.803 361 366.409C359.591 367.015 357.872 367.318 355.841 367.318ZM356.659 362.5C358.781 362.5 360.568 362.083 362.023 361.25C363.493 360.417 364.599 359.341 365.341 358.023C366.099 356.705 366.478 355.318 366.478 353.864V348.955C366.25 349.227 365.75 349.477 364.978 349.705C364.22 349.917 363.341 350.106 362.341 350.273C361.356 350.424 360.394 350.561 359.455 350.682C358.531 350.788 357.781 350.879 357.205 350.955C355.811 351.136 354.508 351.432 353.296 351.841C352.099 352.235 351.129 352.833 350.387 353.636C349.659 354.424 349.296 355.5 349.296 356.864C349.296 358.727 349.985 360.136 351.364 361.091C352.758 362.03 354.523 362.5 356.659 362.5ZM357.023 326.864L349.932 316.318H356.205L361.75 326.864H357.023ZM428.176 331.591L415.267 366.5H409.813L396.904 331.591H402.722L412.358 359.409H412.722L422.358 331.591H428.176ZM435.256 366.5V331.591H440.62V366.5H435.256ZM437.983 325.773C436.938 325.773 436.036 325.417 435.279 324.705C434.536 323.992 434.165 323.136 434.165 322.136C434.165 321.136 434.536 320.28 435.279 319.568C436.036 318.856 436.938 318.5 437.983 318.5C439.029 318.5 439.923 318.856 440.665 319.568C441.423 320.28 441.801 321.136 441.801 322.136C441.801 323.136 441.423 323.992 440.665 324.705C439.923 325.417 439.029 325.773 437.983 325.773ZM475.171 339.409L470.353 340.773C470.05 339.97 469.603 339.189 469.012 338.432C468.436 337.659 467.648 337.023 466.648 336.523C465.648 336.023 464.368 335.773 462.807 335.773C460.671 335.773 458.89 336.265 457.466 337.25C456.057 338.22 455.353 339.455 455.353 340.955C455.353 342.288 455.837 343.341 456.807 344.114C457.777 344.886 459.292 345.53 461.353 346.045L466.534 347.318C469.656 348.076 471.981 349.235 473.512 350.795C475.042 352.341 475.807 354.333 475.807 356.773C475.807 358.773 475.231 360.561 474.08 362.136C472.943 363.712 471.353 364.955 469.307 365.864C467.262 366.773 464.883 367.227 462.171 367.227C458.61 367.227 455.663 366.455 453.33 364.909C450.997 363.364 449.519 361.106 448.898 358.136L453.989 356.864C454.474 358.742 455.39 360.152 456.739 361.091C458.103 362.03 459.883 362.5 462.08 362.5C464.58 362.5 466.565 361.97 468.034 360.909C469.519 359.833 470.262 358.545 470.262 357.045C470.262 355.833 469.837 354.818 468.989 354C468.14 353.167 466.837 352.545 465.08 352.136L459.262 350.773C456.065 350.015 453.716 348.841 452.216 347.25C450.731 345.644 449.989 343.636 449.989 341.227C449.989 339.258 450.542 337.515 451.648 336C452.769 334.485 454.292 333.295 456.216 332.432C458.156 331.568 460.353 331.136 462.807 331.136C466.262 331.136 468.974 331.894 470.943 333.409C472.928 334.924 474.337 336.924 475.171 339.409ZM499.063 331.591V336.136H480.972V331.591H499.063ZM486.245 323.227H491.608V356.5C491.608 358.015 491.828 359.152 492.267 359.909C492.722 360.652 493.298 361.152 493.995 361.409C494.707 361.652 495.457 361.773 496.245 361.773C496.836 361.773 497.32 361.742 497.699 361.682C498.078 361.606 498.381 361.545 498.608 361.5L499.699 366.318C499.336 366.455 498.828 366.591 498.176 366.727C497.525 366.879 496.699 366.955 495.699 366.955C494.184 366.955 492.699 366.629 491.245 365.977C489.805 365.326 488.608 364.333 487.654 363C486.714 361.667 486.245 359.985 486.245 357.955V323.227ZM517.404 367.318C515.192 367.318 513.184 366.902 511.381 366.068C509.578 365.22 508.146 364 507.086 362.409C506.025 360.803 505.495 358.864 505.495 356.591C505.495 354.591 505.889 352.97 506.676 351.727C507.464 350.47 508.517 349.485 509.836 348.773C511.154 348.061 512.608 347.53 514.199 347.182C515.805 346.818 517.419 346.53 519.04 346.318C521.161 346.045 522.881 345.841 524.199 345.705C525.533 345.553 526.502 345.303 527.108 344.955C527.729 344.606 528.04 344 528.04 343.136V342.955C528.04 340.712 527.426 338.97 526.199 337.727C524.987 336.485 523.146 335.864 520.676 335.864C518.116 335.864 516.108 336.424 514.654 337.545C513.199 338.667 512.176 339.864 511.586 341.136L506.495 339.318C507.404 337.197 508.616 335.545 510.131 334.364C511.661 333.167 513.328 332.333 515.131 331.864C516.949 331.379 518.737 331.136 520.495 331.136C521.616 331.136 522.904 331.273 524.358 331.545C525.828 331.803 527.245 332.341 528.608 333.159C529.987 333.977 531.131 335.212 532.04 336.864C532.949 338.515 533.404 340.727 533.404 343.5V366.5H528.04V361.773H527.767C527.404 362.53 526.798 363.341 525.949 364.205C525.101 365.068 523.972 365.803 522.563 366.409C521.154 367.015 519.434 367.318 517.404 367.318ZM518.222 362.5C520.343 362.5 522.131 362.083 523.586 361.25C525.055 360.417 526.161 359.341 526.904 358.023C527.661 356.705 528.04 355.318 528.04 353.864V348.955C527.813 349.227 527.313 349.477 526.54 349.705C525.782 349.917 524.904 350.106 523.904 350.273C522.919 350.424 521.957 350.561 521.017 350.682C520.093 350.788 519.343 350.879 518.767 350.955C517.373 351.136 516.07 351.432 514.858 351.841C513.661 352.235 512.692 352.833 511.949 353.636C511.222 354.424 510.858 355.5 510.858 356.864C510.858 358.727 511.548 360.136 512.926 361.091C514.32 362.03 516.086 362.5 518.222 362.5ZM20.2905 403.051C20.2905 399.538 20.764 396.309 21.7109 393.364C22.6579 390.409 24.1352 387.668 26.1428 385.139H32.8757C32.1181 386.077 31.4126 387.218 30.7592 388.562C30.1058 389.907 29.5376 391.38 29.0547 392.98C28.5812 394.58 28.2071 396.238 27.9325 397.952C27.6674 399.666 27.5348 401.366 27.5348 403.051C27.5348 405.286 27.7668 407.545 28.2308 409.827C28.6948 412.099 29.3293 414.206 30.1342 416.148C30.9392 418.098 31.853 419.699 32.8757 420.949H26.1428C24.1352 418.42 22.6579 415.684 21.7109 412.739C20.764 409.784 20.2905 406.555 20.2905 403.051ZM45.9723 414.912C43.6712 414.912 41.6967 414.438 40.049 413.491C38.4107 412.545 37.1513 411.228 36.2706 409.543C35.3899 407.848 34.9496 405.887 34.9496 403.662C34.9496 401.427 35.3899 399.467 36.2706 397.781C37.1607 396.086 38.425 394.765 40.0632 393.818C41.7109 392.871 43.6759 392.398 45.9581 392.398C47.9751 392.398 49.7318 392.762 51.228 393.491C52.7337 394.221 53.9079 395.253 54.7507 396.588C55.603 397.914 56.0528 399.472 56.1001 401.261H49.6087C49.4761 400.144 49.0973 399.268 48.4723 398.634C47.8568 397.999 47.0518 397.682 46.0575 397.682C45.2526 397.682 44.5471 397.909 43.9411 398.364C43.335 398.809 42.8615 399.472 42.5206 400.352C42.1892 401.223 42.0234 402.303 42.0234 403.591C42.0234 404.879 42.1892 405.968 42.5206 406.858C42.8615 407.739 43.335 408.406 43.9411 408.861C44.5471 409.306 45.2526 409.528 46.0575 409.528C46.7015 409.528 47.2696 409.391 47.7621 409.116C48.264 408.842 48.6759 408.439 48.9979 407.909C49.3198 407.369 49.5234 406.716 49.6087 405.949H56.1001C56.0339 407.748 55.584 409.32 54.7507 410.665C53.9268 412.009 52.7668 413.056 51.2706 413.804C49.7839 414.543 48.0178 414.912 45.9723 414.912ZM69.8395 414.912C67.5478 414.912 65.5781 414.443 63.9304 413.506C62.2921 412.559 61.0279 411.242 60.1378 409.557C59.2571 407.862 58.8168 405.897 58.8168 403.662C58.8168 401.418 59.2571 399.453 60.1378 397.767C61.0279 396.072 62.2921 394.756 63.9304 393.818C65.5781 392.871 67.5478 392.398 69.8395 392.398C72.1312 392.398 74.0961 392.871 75.7344 393.818C77.3821 394.756 78.6463 396.072 79.527 397.767C80.4171 399.453 80.8622 401.418 80.8622 403.662C80.8622 405.897 80.4171 407.862 79.527 409.557C78.6463 411.242 77.3821 412.559 75.7344 413.506C74.0961 414.443 72.1312 414.912 69.8395 414.912ZM69.8821 409.67C70.7154 409.67 71.4209 409.415 71.9986 408.903C72.5762 408.392 73.0166 407.682 73.3196 406.773C73.6321 405.864 73.7884 404.812 73.7884 403.619C73.7884 402.407 73.6321 401.347 73.3196 400.438C73.0166 399.528 72.5762 398.818 71.9986 398.307C71.4209 397.795 70.7154 397.54 69.8821 397.54C69.0204 397.54 68.2912 397.795 67.6946 398.307C67.1075 398.818 66.6577 399.528 66.3452 400.438C66.0421 401.347 65.8906 402.407 65.8906 403.619C65.8906 404.812 66.0421 405.864 66.3452 406.773C66.6577 407.682 67.1075 408.392 67.6946 408.903C68.2912 409.415 69.0204 409.67 69.8821 409.67ZM84.4205 414.5V392.682H91.0256V396.688H91.267C91.7216 395.362 92.4886 394.315 93.5682 393.548C94.6477 392.781 95.9356 392.398 97.4318 392.398C98.947 392.398 100.244 392.786 101.324 393.562C102.403 394.339 103.09 395.381 103.384 396.688H103.611C104.018 395.39 104.813 394.353 105.997 393.577C107.181 392.791 108.578 392.398 110.188 392.398C112.252 392.398 113.928 393.061 115.216 394.386C116.504 395.703 117.148 397.511 117.148 399.812V414.5H110.202V401.403C110.202 400.314 109.922 399.486 109.364 398.918C108.805 398.34 108.08 398.051 107.19 398.051C106.234 398.051 105.481 398.364 104.932 398.989C104.392 399.604 104.122 400.433 104.122 401.474V414.5H97.446V401.332C97.446 400.319 97.1714 399.519 96.6222 398.932C96.0729 398.345 95.3485 398.051 94.4489 398.051C93.8428 398.051 93.3078 398.198 92.8438 398.491C92.3797 398.776 92.0152 399.183 91.75 399.713C91.4943 400.243 91.3665 400.868 91.3665 401.588V414.5H84.4205ZM138.014 414.812C136.404 414.812 134.941 414.396 133.625 413.562C132.309 412.729 131.258 411.479 130.472 409.812C129.686 408.146 129.293 406.077 129.293 403.605C129.293 401.039 129.7 398.927 130.514 397.27C131.329 395.613 132.394 394.386 133.71 393.591C135.036 392.795 136.461 392.398 137.986 392.398C139.132 392.398 140.112 392.597 140.926 392.994C141.741 393.383 142.413 393.884 142.943 394.5C143.473 395.116 143.876 395.755 144.151 396.418H144.293V385.409H151.239V414.5H144.364V410.963H144.151C143.857 411.635 143.44 412.265 142.901 412.852C142.361 413.439 141.684 413.913 140.869 414.273C140.064 414.633 139.113 414.812 138.014 414.812ZM140.429 409.401C141.272 409.401 141.991 409.164 142.588 408.69C143.185 408.207 143.644 407.53 143.966 406.659C144.288 405.788 144.449 404.765 144.449 403.591C144.449 402.398 144.288 401.37 143.966 400.509C143.653 399.647 143.194 398.984 142.588 398.52C141.991 398.056 141.272 397.824 140.429 397.824C139.567 397.824 138.838 398.061 138.241 398.534C137.645 399.008 137.19 399.675 136.878 400.537C136.575 401.399 136.423 402.417 136.423 403.591C136.423 404.765 136.58 405.788 136.892 406.659C137.205 407.53 137.654 408.207 138.241 408.69C138.838 409.164 139.567 409.401 140.429 409.401ZM165.83 414.912C163.548 414.912 161.578 414.462 159.921 413.562C158.273 412.653 157.004 411.361 156.114 409.685C155.234 407.999 154.793 405.996 154.793 403.676C154.793 401.422 155.238 399.453 156.129 397.767C157.019 396.072 158.273 394.756 159.893 393.818C161.512 392.871 163.42 392.398 165.617 392.398C167.17 392.398 168.591 392.639 169.879 393.122C171.166 393.605 172.279 394.32 173.217 395.267C174.154 396.214 174.883 397.384 175.404 398.776C175.925 400.158 176.185 401.744 176.185 403.534V405.267H157.222V401.233H169.722C169.713 400.494 169.538 399.836 169.197 399.259C168.856 398.681 168.387 398.231 167.79 397.909C167.203 397.578 166.526 397.412 165.759 397.412C164.983 397.412 164.287 397.587 163.671 397.938C163.056 398.278 162.568 398.747 162.208 399.344C161.848 399.931 161.659 400.598 161.64 401.347V405.452C161.64 406.342 161.815 407.123 162.165 407.795C162.516 408.458 163.013 408.974 163.657 409.344C164.301 409.713 165.068 409.898 165.958 409.898C166.574 409.898 167.132 409.812 167.634 409.642C168.136 409.472 168.567 409.221 168.927 408.889C169.287 408.558 169.557 408.151 169.737 407.668L176.114 407.852C175.849 409.282 175.267 410.527 174.367 411.588C173.477 412.639 172.308 413.458 170.859 414.045C169.41 414.623 167.734 414.912 165.83 414.912ZM198.781 399.344L192.403 399.514C192.337 399.06 192.157 398.657 191.864 398.307C191.57 397.947 191.187 397.668 190.713 397.469C190.249 397.26 189.709 397.156 189.094 397.156C188.289 397.156 187.602 397.317 187.034 397.639C186.475 397.961 186.201 398.397 186.21 398.946C186.201 399.372 186.371 399.741 186.722 400.054C187.081 400.366 187.721 400.617 188.639 400.807L192.844 401.602C195.022 402.019 196.641 402.71 197.702 403.676C198.772 404.642 199.312 405.92 199.321 407.511C199.312 409.008 198.866 410.31 197.986 411.418C197.115 412.526 195.921 413.387 194.406 414.003C192.891 414.609 191.158 414.912 189.207 414.912C186.092 414.912 183.634 414.273 181.835 412.994C180.045 411.706 179.023 409.983 178.767 407.824L185.628 407.653C185.779 408.449 186.172 409.055 186.807 409.472C187.441 409.888 188.251 410.097 189.236 410.097C190.126 410.097 190.85 409.931 191.409 409.599C191.968 409.268 192.252 408.828 192.261 408.278C192.252 407.786 192.034 407.393 191.608 407.099C191.182 406.796 190.514 406.56 189.605 406.389L185.798 405.665C183.611 405.267 181.982 404.533 180.912 403.463C179.842 402.384 179.312 401.01 179.321 399.344C179.312 397.885 179.7 396.64 180.486 395.608C181.272 394.566 182.389 393.771 183.838 393.222C185.287 392.672 186.996 392.398 188.966 392.398C191.92 392.398 194.25 393.018 195.955 394.259C197.659 395.49 198.601 397.185 198.781 399.344ZM212.925 414.912C210.624 414.912 208.65 414.438 207.002 413.491C205.364 412.545 204.104 411.228 203.224 409.543C202.343 407.848 201.903 405.887 201.903 403.662C201.903 401.427 202.343 399.467 203.224 397.781C204.114 396.086 205.378 394.765 207.016 393.818C208.664 392.871 210.629 392.398 212.911 392.398C214.928 392.398 216.685 392.762 218.181 393.491C219.687 394.221 220.861 395.253 221.704 396.588C222.556 397.914 223.006 399.472 223.053 401.261H216.562C216.429 400.144 216.05 399.268 215.425 398.634C214.81 397.999 214.005 397.682 213.011 397.682C212.206 397.682 211.5 397.909 210.894 398.364C210.288 398.809 209.815 399.472 209.474 400.352C209.142 401.223 208.977 402.303 208.977 403.591C208.977 404.879 209.142 405.968 209.474 406.858C209.815 407.739 210.288 408.406 210.894 408.861C211.5 409.306 212.206 409.528 213.011 409.528C213.655 409.528 214.223 409.391 214.715 409.116C215.217 408.842 215.629 408.439 215.951 407.909C216.273 407.369 216.477 406.716 216.562 405.949H223.053C222.987 407.748 222.537 409.32 221.704 410.665C220.88 412.009 219.72 413.056 218.224 413.804C216.737 414.543 214.971 414.912 212.925 414.912ZM236.793 414.912C234.501 414.912 232.531 414.443 230.884 413.506C229.245 412.559 227.981 411.242 227.091 409.557C226.21 407.862 225.77 405.897 225.77 403.662C225.77 401.418 226.21 399.453 227.091 397.767C227.981 396.072 229.245 394.756 230.884 393.818C232.531 392.871 234.501 392.398 236.793 392.398C239.084 392.398 241.049 392.871 242.688 393.818C244.335 394.756 245.599 396.072 246.48 397.767C247.37 399.453 247.815 401.418 247.815 403.662C247.815 405.897 247.37 407.862 246.48 409.557C245.599 411.242 244.335 412.559 242.688 413.506C241.049 414.443 239.084 414.912 236.793 414.912ZM236.835 409.67C237.669 409.67 238.374 409.415 238.952 408.903C239.529 408.392 239.97 407.682 240.273 406.773C240.585 405.864 240.741 404.812 240.741 403.619C240.741 402.407 240.585 401.347 240.273 400.438C239.97 399.528 239.529 398.818 238.952 398.307C238.374 397.795 237.669 397.54 236.835 397.54C235.973 397.54 235.244 397.795 234.648 398.307C234.061 398.818 233.611 399.528 233.298 400.438C232.995 401.347 232.844 402.407 232.844 403.619C232.844 404.812 232.995 405.864 233.298 406.773C233.611 407.682 234.061 408.392 234.648 408.903C235.244 409.415 235.973 409.67 236.835 409.67ZM258.32 402.057V414.5H251.374V392.682H257.979V396.688H258.22C258.703 395.352 259.527 394.306 260.692 393.548C261.857 392.781 263.244 392.398 264.854 392.398C266.388 392.398 267.718 392.743 268.845 393.435C269.982 394.116 270.862 395.073 271.487 396.304C272.122 397.526 272.434 398.955 272.425 400.594V414.5H265.479V401.957C265.488 400.745 265.18 399.798 264.555 399.116C263.94 398.435 263.083 398.094 261.984 398.094C261.255 398.094 260.611 398.255 260.053 398.577C259.503 398.889 259.077 399.339 258.774 399.926C258.481 400.513 258.329 401.223 258.32 402.057ZM289.04 392.682V397.795H275.276V392.682H289.04ZM278.16 387.455H285.106V407.639C285.106 408.065 285.172 408.411 285.305 408.676C285.447 408.932 285.65 409.116 285.915 409.23C286.181 409.334 286.498 409.386 286.867 409.386C287.132 409.386 287.412 409.363 287.705 409.315C288.008 409.259 288.236 409.211 288.387 409.173L289.438 414.188C289.107 414.282 288.638 414.401 288.032 414.543C287.435 414.685 286.72 414.775 285.887 414.812C284.258 414.888 282.862 414.699 281.697 414.244C280.541 413.78 279.656 413.061 279.04 412.085C278.434 411.11 278.141 409.884 278.16 408.406V387.455ZM302.535 414.912C300.243 414.912 298.273 414.443 296.626 413.506C294.987 412.559 293.723 411.242 292.833 409.557C291.952 407.862 291.512 405.897 291.512 403.662C291.512 401.418 291.952 399.453 292.833 397.767C293.723 396.072 294.987 394.756 296.626 393.818C298.273 392.871 300.243 392.398 302.535 392.398C304.826 392.398 306.791 392.871 308.43 393.818C310.077 394.756 311.342 396.072 312.222 397.767C313.112 399.453 313.558 401.418 313.558 403.662C313.558 405.897 313.112 407.862 312.222 409.557C311.342 411.242 310.077 412.559 308.43 413.506C306.791 414.443 304.826 414.912 302.535 414.912ZM302.577 409.67C303.411 409.67 304.116 409.415 304.694 408.903C305.272 408.392 305.712 407.682 306.015 406.773C306.327 405.864 306.484 404.812 306.484 403.619C306.484 402.407 306.327 401.347 306.015 400.438C305.712 399.528 305.272 398.818 304.694 398.307C304.116 397.795 303.411 397.54 302.577 397.54C301.716 397.54 300.987 397.795 300.39 398.307C299.803 398.818 299.353 399.528 299.04 400.438C298.737 401.347 298.586 402.407 298.586 403.619C298.586 404.812 298.737 405.864 299.04 406.773C299.353 407.682 299.803 408.392 300.39 408.903C300.987 409.415 301.716 409.67 302.577 409.67ZM335.908 414.912C333.626 414.912 331.656 414.462 329.999 413.562C328.352 412.653 327.083 411.361 326.192 409.685C325.312 407.999 324.871 405.996 324.871 403.676C324.871 401.422 325.317 399.453 326.207 397.767C327.097 396.072 328.352 394.756 329.971 393.818C331.59 392.871 333.498 392.398 335.695 392.398C337.248 392.398 338.669 392.639 339.957 393.122C341.245 393.605 342.357 394.32 343.295 395.267C344.232 396.214 344.961 397.384 345.482 398.776C346.003 400.158 346.263 401.744 346.263 403.534V405.267H327.3V401.233H339.8C339.791 400.494 339.616 399.836 339.275 399.259C338.934 398.681 338.465 398.231 337.869 397.909C337.281 397.578 336.604 397.412 335.837 397.412C335.061 397.412 334.365 397.587 333.749 397.938C333.134 398.278 332.646 398.747 332.286 399.344C331.926 399.931 331.737 400.598 331.718 401.347V405.452C331.718 406.342 331.893 407.123 332.244 407.795C332.594 408.458 333.091 408.974 333.735 409.344C334.379 409.713 335.146 409.898 336.036 409.898C336.652 409.898 337.21 409.812 337.712 409.642C338.214 409.472 338.645 409.221 339.005 408.889C339.365 408.558 339.635 408.151 339.815 407.668L346.192 407.852C345.927 409.282 345.345 410.527 344.445 411.588C343.555 412.639 342.386 413.458 340.937 414.045C339.488 414.623 337.812 414.912 335.908 414.912ZM355.408 392.682L359.001 399.869L362.723 392.682H369.726L363.632 403.591L369.953 414.5H363.007L359.001 407.256L355.095 414.5H348.05L354.385 403.591L348.362 392.682H355.408ZM382.3 414.912C379.999 414.912 378.025 414.438 376.377 413.491C374.739 412.545 373.479 411.228 372.599 409.543C371.718 407.848 371.278 405.887 371.278 403.662C371.278 401.427 371.718 399.467 372.599 397.781C373.489 396.086 374.753 394.765 376.391 393.818C378.039 392.871 380.004 392.398 382.286 392.398C384.303 392.398 386.06 392.762 387.556 393.491C389.062 394.221 390.236 395.253 391.079 396.588C391.931 397.914 392.381 399.472 392.428 401.261H385.937C385.804 400.144 385.425 399.268 384.8 398.634C384.185 397.999 383.38 397.682 382.386 397.682C381.581 397.682 380.875 397.909 380.269 398.364C379.663 398.809 379.19 399.472 378.849 400.352C378.517 401.223 378.352 402.303 378.352 403.591C378.352 404.879 378.517 405.968 378.849 406.858C379.19 407.739 379.663 408.406 380.269 408.861C380.875 409.306 381.581 409.528 382.386 409.528C383.03 409.528 383.598 409.391 384.09 409.116C384.592 408.842 385.004 408.439 385.326 407.909C385.648 407.369 385.852 406.716 385.937 405.949H392.428C392.362 407.748 391.912 409.32 391.079 410.665C390.255 412.009 389.095 413.056 387.599 413.804C386.112 414.543 384.346 414.912 382.3 414.912ZM402.929 385.409V414.5H395.983V385.409H402.929ZM421.427 405.082V392.682H428.359V414.5H421.739V410.438H421.512C421.029 411.773 420.205 412.833 419.04 413.619C417.885 414.396 416.488 414.784 414.85 414.784C413.363 414.784 412.057 414.443 410.93 413.761C409.803 413.08 408.927 412.128 408.302 410.906C407.677 409.675 407.36 408.236 407.35 406.588V392.682H414.296V405.224C414.306 406.408 414.618 407.341 415.234 408.023C415.849 408.705 416.687 409.045 417.748 409.045C418.439 409.045 419.059 408.894 419.609 408.591C420.167 408.278 420.608 407.829 420.93 407.241C421.261 406.645 421.427 405.925 421.427 405.082ZM451.828 399.344L445.45 399.514C445.384 399.06 445.204 398.657 444.911 398.307C444.617 397.947 444.233 397.668 443.76 397.469C443.296 397.26 442.756 397.156 442.141 397.156C441.336 397.156 440.649 397.317 440.081 397.639C439.522 397.961 439.248 398.397 439.257 398.946C439.248 399.372 439.418 399.741 439.768 400.054C440.128 400.366 440.768 400.617 441.686 400.807L445.891 401.602C448.069 402.019 449.688 402.71 450.749 403.676C451.819 404.642 452.358 405.92 452.368 407.511C452.358 409.008 451.913 410.31 451.033 411.418C450.161 412.526 448.968 413.387 447.453 414.003C445.938 414.609 444.205 414.912 442.254 414.912C439.139 414.912 436.681 414.273 434.882 412.994C433.092 411.706 432.07 409.983 431.814 407.824L438.675 407.653C438.826 408.449 439.219 409.055 439.854 409.472C440.488 409.888 441.298 410.097 442.283 410.097C443.173 410.097 443.897 409.931 444.456 409.599C445.015 409.268 445.299 408.828 445.308 408.278C445.299 407.786 445.081 407.393 444.655 407.099C444.229 406.796 443.561 406.56 442.652 406.389L438.845 405.665C436.658 405.267 435.029 404.533 433.959 403.463C432.889 402.384 432.358 401.01 432.368 399.344C432.358 397.885 432.747 396.64 433.533 395.608C434.319 394.566 435.436 393.771 436.885 393.222C438.334 392.672 440.043 392.398 442.013 392.398C444.967 392.398 447.297 393.018 449.001 394.259C450.706 395.49 451.648 397.185 451.828 399.344ZM455.788 414.5V392.682H462.734V414.5H455.788ZM459.268 390.139C458.292 390.139 457.454 389.817 456.754 389.173C456.053 388.52 455.702 387.734 455.702 386.815C455.702 385.906 456.053 385.13 456.754 384.486C457.454 383.832 458.292 383.506 459.268 383.506C460.253 383.506 461.091 383.832 461.782 384.486C462.483 385.13 462.833 385.906 462.833 386.815C462.833 387.734 462.483 388.52 461.782 389.173C461.091 389.817 460.253 390.139 459.268 390.139ZM488.32 392.682L480.834 414.5H472.879L465.408 392.682H472.723L476.743 407.71H476.97L481.004 392.682H488.32ZM500.464 414.912C498.173 414.912 496.203 414.443 494.555 413.506C492.917 412.559 491.653 411.242 490.763 409.557C489.882 407.862 489.442 405.897 489.442 403.662C489.442 401.418 489.882 399.453 490.763 397.767C491.653 396.072 492.917 394.756 494.555 393.818C496.203 392.871 498.173 392.398 500.464 392.398C502.756 392.398 504.721 392.871 506.359 393.818C508.007 394.756 509.271 396.072 510.152 397.767C511.042 399.453 511.487 401.418 511.487 403.662C511.487 405.897 511.042 407.862 510.152 409.557C509.271 411.242 508.007 412.559 506.359 413.506C504.721 414.443 502.756 414.912 500.464 414.912ZM500.507 409.67C501.34 409.67 502.046 409.415 502.624 408.903C503.201 408.392 503.642 407.682 503.945 406.773C504.257 405.864 504.413 404.812 504.413 403.619C504.413 402.407 504.257 401.347 503.945 400.438C503.642 399.528 503.201 398.818 502.624 398.307C502.046 397.795 501.34 397.54 500.507 397.54C499.645 397.54 498.916 397.795 498.32 398.307C497.732 398.818 497.283 399.528 496.97 400.438C496.667 401.347 496.516 402.407 496.516 403.619C496.516 404.812 496.667 405.864 496.97 406.773C497.283 407.682 497.732 408.392 498.32 408.903C498.916 409.415 499.645 409.67 500.507 409.67ZM525.706 403.051C525.706 406.555 525.232 409.784 524.286 412.739C523.339 415.684 521.861 418.42 519.854 420.949H513.121C513.888 420.011 514.593 418.87 515.237 417.526C515.891 416.181 516.454 414.708 516.928 413.108C517.411 411.508 517.785 409.85 518.05 408.136C518.324 406.422 518.462 404.727 518.462 403.051C518.462 400.807 518.23 398.548 517.766 396.276C517.302 393.993 516.667 391.882 515.862 389.94C515.057 387.99 514.143 386.389 513.121 385.139H519.854C521.861 387.668 523.339 390.409 524.286 393.364C525.232 396.309 525.706 399.538 525.706 403.051Z" fill="#EE3131"/>
</svg>
